<svg xmlns="http://www.w3.org/2000/svg" viewBox="0 0 256 256"><defs><style>.cls-1{fill:#140a1e;}</style></defs><g id="Datanode"><path class="cls-1" d="M235,48c-.55-14.52-48.66-26.25-107.42-26.25S21.55,33.48,21,48h0V207h0c0,.25,0,.5,0,.75,0,14.63,48.08,26.5,107.17,26.5,58.76,0,106.27-11.73,106.82-26.25h0V48ZM66.55,46.88c17.36-3.31,38.76-5.13,61-5.13s44.52,1.82,61.88,5.13q3.53.67,6.55,1.37-3,.69-6.55,1.37c-17.36,3.31-39.62,5.13-61.88,5.13s-43.66-1.82-61-5.13Q63,48.95,60,48.25,63,47.56,66.55,46.88ZM214,203.24A172.75,172.75,0,0,1,190.32,209l-.87.17c-17.36,3.31-39,5.13-61.28,5.13s-44.26-1.82-61.62-5.13Q63,208.45,60,207.75l.09,0A153.54,153.54,0,0,1,42,203V170.07c19.38,6.48,50.42,10.68,85.57,10.68,35.34,0,66.82-4.24,86.43-10.78Zm0-53.5a172.75,172.75,0,0,1-23.68,5.71c-17.48,3.08-39.67,4.88-62.75,4.88-26,0-48.95-2.29-67.48-6.1A153.54,153.54,0,0,1,42,149.46v-30.2c20.06,6.66,52.47,11,88.17,11,34.77,0,64.9-4.11,83.83-10.47Zm0-50.5A172.75,172.75,0,0,1,190.32,105l-.87.17a316.87,316.87,0,0,1-59.28,5.13c-22.26,0-46.26-1.82-63.62-5.13Q63,104.45,60,103.75l.09,0A153.54,153.54,0,0,1,42,99V64.07c19.38,6.48,50.42,10.68,85.57,10.68,35.34,0,66.82-4.24,86.43-10.78Z"/><circle class="cls-1" cx="73.5" cy="88.5" r="10.5"/><circle class="cls-1" cx="73.5" cy="141.5" r="10.5"/><circle class="cls-1" cx="73.5" cy="194.5" r="10.5"/></g></svg>