<?xml version="1.0" standalone="no"?>
<!DOCTYPE svg PUBLIC "-//W3C//DTD SVG 20010904//EN"
 "http://www.w3.org/TR/2001/REC-SVG-20010904/DTD/svg10.dtd">
<svg version="1.0" xmlns="http://www.w3.org/2000/svg"
 width="512.000000pt" height="512.000000pt" viewBox="0 0 512.000000 512.000000"
 preserveAspectRatio="xMidYMid meet">

<g transform="translate(0.000000,512.000000) scale(0.100000,-0.100000)"
fill="#000000" stroke="none">
<path d="M640 2455 l0 -1815 1815 0 1815 0 0 640 0 640 -430 0 -430 0 0 425 0
425 -425 0 -425 0 0 430 0 430 -533 -2 -532 -3 -3 -637 -2 -638 -320 0 -320 0
0 960 0 960 -105 0 -105 0 0 -1815z m1708 -322 l-3 -1278 -317 -3 -318 -2 0
1280 0 1280 320 0 320 0 -2 -1277z m852 -428 l0 -855 -320 0 -320 0 0 855 0
855 320 0 320 0 0 -855z m-1710 -215 l0 -640 -317 2 -318 3 -3 638 -2 637 320
0 320 0 0 -640z m2560 -210 l0 -430 -317 2 -318 3 -3 415 c-1 228 0 421 3 427
3 10 77 13 320 13 l315 0 0 -430z"/>
</g>
</svg>
